<?xml version="1.0"?>
<svg xmlns="http://www.w3.org/2000/svg" xmlns:xlink="http://www.w3.org/1999/xlink" version="1.1" id="Capa_1" x="0px" y="0px" viewBox="0 0 341.2 341.2" style="enable-background:new 0 0 341.2 341.2;" xml:space="preserve" width="512px" height="512px" class=""><g><path style="fill:#087CA7" d="M62.8,0h244c10,0,18.4,8,18.4,18.4v304.4c0,10-8,18.4-18.4,18.4h-244c-10,0-18-8-18-18.4V18  C44.8,8,52.8,0,62.8,0z" data-original="#90DEE0" class="" data-old_color="#087ca7"/><g>
	<circle style="fill:#FFFFFF;" cx="185.2" cy="108.4" r="39.2" data-original="#FFFFFF" class=""/>
	<path style="fill:#FFFFFF;" d="M160,171.6h50c29.6,0,53.6,24,53.6,53.6v34H106.4v-34C106.4,195.6,130.4,171.6,160,171.6z" data-original="#FFFFFF" class=""/>
</g><g>
	<path style="fill:#FFFCFC" d="M31.6,53.2h26c8.4,0,15.6,6.8,15.6,15.6l0,0c0,8.4-6.8,15.6-15.6,15.6h-26   c-8.4,0-15.6-6.8-15.6-15.6l0,0C16.4,60.4,23.2,53.2,31.6,53.2z" data-original="#666666" class="active-path" data-old_color="#FDFBFB"/>
	<path style="fill:#FFFCFC" d="M31.6,154.8h26c8.4,0,15.6,6.8,15.6,15.6l0,0c0,8.4-6.8,15.6-15.6,15.6h-26   c-8.4,0-15.6-6.8-15.6-15.6l0,0C16.4,162,23.2,154.8,31.6,154.8z" data-original="#666666" class="active-path" data-old_color="#FDFBFB"/>
	<path style="fill:#FFFCFC" d="M31.6,256.4h26c8.4,0,15.6,6.8,15.6,15.6l0,0c0,8.4-6.8,15.6-15.6,15.6h-26   c-8.4,0-15.6-6.8-15.6-15.6l0,0C16.4,263.6,23.2,256.4,31.6,256.4z" data-original="#666666" class="active-path" data-old_color="#FDFBFB"/>
</g></g> </svg>
